<svg xmlns="http://www.w3.org/2000/svg" width="49.637" height="49.637" viewBox="0 0 49.637 49.637">
  <g id="Grupo_73" data-name="Grupo 73" transform="translate(547 -655)">
    <path id="Trazado_81" data-name="Trazado 81" d="M-547,693.488a14.233,14.233,0,0,1,.782-2.162,6.154,6.154,0,0,1,8.888-2.172l.262.174,5-4c-1.577-2.563-3.137-5.088-4.682-7.622-.158-.26-.326-.173-.531-.128a6.206,6.206,0,0,1-7.537-4.861,6.231,6.231,0,0,1,4.815-7.244,6.211,6.211,0,0,1,7.352,4.834,6.074,6.074,0,0,1-1.358,5.25c-.165.2-.235.334-.08.582q2.173,3.495,4.324,7a2.36,2.36,0,0,0,.168.209c1.224-.979,2.438-1.938,3.63-2.926.093-.077.08-.369.023-.528a6.221,6.221,0,0,1,4-8.07,6.019,6.019,0,0,1,4.653.4.414.414,0,0,0,.583-.068q3.843-3.867,7.7-7.715a.849.849,0,0,0,.073-.109,6.405,6.405,0,0,1-.836-2.971,6.208,6.208,0,0,1,5.207-6.286,1.239,1.239,0,0,0,.22-.084h1.551a2.2,2.2,0,0,0,.268.09,6.148,6.148,0,0,1,4.919,4.413c.1.3.162.617.242.926v1.551a2.614,2.614,0,0,0-.1.315,6.234,6.234,0,0,1-6.079,5.115,6.6,6.6,0,0,1-3.2-.857c-2.619,2.624-5.222,5.227-7.811,7.845a.53.53,0,0,0-.051.484,6.512,6.512,0,0,1,.666,3.426,6.256,6.256,0,0,1-6.628,5.632,6.63,6.63,0,0,1-3.273-1.221l-4.149,3.321c1.3,2.106,2.572,4.18,3.862,6.245a.483.483,0,0,0,.387.131c.448-.042.892-.157,1.34-.178a6.134,6.134,0,0,1,3.682,1.044l9.62-8.56c-.073-.163-.128-.279-.178-.4a6.214,6.214,0,0,1,3.619-8.279,6.208,6.208,0,0,1,8.041,4.114c.09.305.167.614.251.921v1.551a2.031,2.031,0,0,0-.088.273,6.189,6.189,0,0,1-9.242,4.329.469.469,0,0,0-.659.084q-2.957,2.65-5.931,5.283c-1.12,1-2.239,1.995-3.368,3,.067.153.127.283.182.415a6.208,6.208,0,0,1-4.011,8.381c-.306.089-.617.161-.926.241h-1.551a1.775,1.775,0,0,0-.267-.09,6.212,6.212,0,0,1-4.975-7.621,6.523,6.523,0,0,1,1.546-2.8l-3.777-6.127c-1.461,1.169-2.85,2.3-4.267,3.4a.642.642,0,0,0-.25.876,6.171,6.171,0,0,1-2.965,7.518,6.209,6.209,0,0,1-7.823-1.746,7.329,7.329,0,0,1-1.264-3Zm43.436-29.182a3.111,3.111,0,0,0,3.1-3.118,3.11,3.11,0,0,0-3.081-3.084,3.109,3.109,0,0,0-3.121,3.093A3.111,3.111,0,0,0-503.564,664.305Zm.008,20.672a3.091,3.091,0,0,0,3.089-3.115,3.122,3.122,0,0,0-3.089-3.082,3.123,3.123,0,0,0-3.113,3.106A3.093,3.093,0,0,0-503.556,684.977ZM-540.8,697.386a3.091,3.091,0,0,0,3.1-3.1,3.122,3.122,0,0,0-3.076-3.095,3.124,3.124,0,0,0-3.126,3.093A3.093,3.093,0,0,0-540.8,697.386Zm18.594-2.055a3.109,3.109,0,0,0-3.08,3.133,3.111,3.111,0,0,0,3.1,3.069,3.111,3.111,0,0,0,3.1-3.11A3.109,3.109,0,0,0-522.2,695.331Zm-16.528-26.877a3.1,3.1,0,0,0-3.1,3.069,3.139,3.139,0,0,0,3.108,3.129,3.1,3.1,0,0,0,3.089-3.085A3.072,3.072,0,0,0-538.73,668.454Zm21.707,9.319a3.07,3.07,0,0,0-3.044-3.113,3.1,3.1,0,0,0-3.153,3.068,3.14,3.14,0,0,0,3.108,3.13A3.1,3.1,0,0,0-517.023,677.773Z" fill="#fff"/>
  </g>
</svg>
