<svg xmlns="http://www.w3.org/2000/svg" width="43.098" height="43.098" viewBox="0 0 43.098 43.098">
  <path id="Icon_awesome-check-circle" data-name="Icon awesome-check-circle" d="M43.661,22.112A21.549,21.549,0,1,1,22.112.563,21.549,21.549,0,0,1,43.661,22.112ZM19.619,33.522,35.607,17.534a1.39,1.39,0,0,0,0-1.966L33.641,13.6a1.39,1.39,0,0,0-1.966,0L18.636,26.64l-6.088-6.088a1.39,1.39,0,0,0-1.966,0L8.616,22.519a1.39,1.39,0,0,0,0,1.966l9.037,9.037a1.39,1.39,0,0,0,1.966,0Z" transform="translate(-0.563 -0.563)" fill="#1ad80d"/>
</svg>
