<svg xmlns="http://www.w3.org/2000/svg" width="431.239" height="452.487" viewBox="0 0 431.239 452.487">
  <g id="Grupo_9" data-name="Grupo 9" transform="translate(367.982 -755.592)">
    <path id="Trazado_17" data-name="Trazado 17" d="M-212.352,1075.682c-10.43-2.566-19.1-7.612-23.87-17.7-5.6-11.827-4.554-23.259,3.5-33.535,8.324-10.619,19.64-14.37,32.606-11.088,12.805,3.243,20.823,11.888,23.209,24.951,3.006,16.448-6.438,31.251-22.449,36.063-1.392.418-2.774.873-4.16,1.31Z" transform="translate(66.168 132.397)" fill="#fbb217"/>
    <path id="Trazado_18" data-name="Trazado 18" d="M-200.455,755.592a53.085,53.085,0,0,1,52.661,53.087,53.213,53.213,0,0,1-53.012,52.8,53.209,53.209,0,0,1-52.873-53.376A53.079,53.079,0,0,1-200.455,755.592Z" transform="translate(58.972)" fill="#fbb217"/>
    <path id="Trazado_19" data-name="Trazado 19" d="M-335.946,842.4a47.664,47.664,0,0,1,47.632-47.77,47.883,47.883,0,0,1,47.65,47.408c.193,25.968-21.7,47.917-47.729,47.861A47.866,47.866,0,0,1-335.946,842.4Z" transform="translate(16.529 20.14)" fill="#fbb217"/>
    <path id="Trazado_20" data-name="Trazado 20" d="M-367.982,926.143A42.685,42.685,0,0,1-325.821,883.9c22.985-.161,42.6,19.427,42.466,42.411-.133,23.176-19.792,42.652-42.636,42.24C-349.239,968.132-368.082,949.1-367.982,926.143Z" transform="translate(0 66.199)" fill="#fbb217"/>
    <path id="Trazado_21" data-name="Trazado 21" d="M-328.941,1010.327c-.07-20.219,17.057-37.4,37.09-37.2a37.627,37.627,0,0,1,36.936,36.986c.152,20.131-16.928,37.2-37.151,37.121A37.292,37.292,0,0,1-328.941,1010.327Z" transform="translate(20.143 112.234)" fill="#fbb217"/>
    <path id="Trazado_22" data-name="Trazado 22" d="M-97.567,1006.656a26.5,26.5,0,0,1-26.458,26.352,26.67,26.67,0,0,1-26.4-26.479A26.8,26.8,0,0,1-123.9,980.123,26.643,26.643,0,0,1-97.567,1006.656Z" transform="translate(112.245 115.843)" fill="#fbb217"/>
    <path id="Trazado_23" data-name="Trazado 23" d="M-69.125,919.193a21.315,21.315,0,0,1-21.194,20.958,21.409,21.409,0,0,1-21.079-21.12A21.376,21.376,0,0,1-89.937,897.87,21.293,21.293,0,0,1-69.125,919.193Z" transform="translate(132.381 73.405)" fill="#fbb217"/>
    <path id="Trazado_24" data-name="Trazado 24" d="M-111.774,831.43a15.911,15.911,0,0,1-16.051,15.843,16.143,16.143,0,0,1-15.626-15.917,15.9,15.9,0,0,1,16.139-15.743A15.75,15.75,0,0,1-111.774,831.43Z" transform="translate(115.843 30.966)" fill="#fbb217"/>
  </g>
</svg>
