<svg xmlns="http://www.w3.org/2000/svg" width="44.234" height="58.978" viewBox="0 0 44.234 58.978">
  <path id="Icon_awesome-file-upload" data-name="Icon awesome-file-upload" d="M25.8,15.666V0H2.765A2.758,2.758,0,0,0,0,2.765V56.213a2.758,2.758,0,0,0,2.765,2.765h38.7a2.758,2.758,0,0,0,2.765-2.765V18.431H28.567A2.773,2.773,0,0,1,25.8,15.666Zm7.508,24.883H25.8v9.215a1.843,1.843,0,0,1-1.843,1.843H20.274a1.843,1.843,0,0,1-1.843-1.843V40.549H10.922a1.843,1.843,0,0,1-1.3-3.152L20.731,26.373a1.964,1.964,0,0,1,2.769,0L34.607,37.4A1.842,1.842,0,0,1,33.311,40.549ZM43.427,12.1,32.15.806A2.763,2.763,0,0,0,30.192,0h-.7V14.745H44.234v-.7A2.756,2.756,0,0,0,43.427,12.1Z" fill="#fff"/>
</svg>
